<?xml version="1.0" encoding="utf-8"?>
<!-- Generator: Adobe Illustrator 19.0.0, SVG Export Plug-In . SVG Version: 6.00 Build 0)  -->
<svg version="1.1" id="Layer_1" xmlns="http://www.w3.org/2000/svg" xmlns:xlink="http://www.w3.org/1999/xlink" x="0px" y="0px"
	 viewBox="-193 45 512 512" style="enable-background:new -193 45 512 512;" xml:space="preserve">
<style type="text/css">
	.st0{fill:none;stroke:#FFFFFF;stroke-width:32;stroke-linejoin:round;}
	.st1{fill:none;stroke:#FFFFFF;stroke-width:32;stroke-miterlimit:10;}
	.st2{fill:none;stroke:#FFFFFF;stroke-width:32;stroke-linecap:round;stroke-linejoin:round;}
</style>
<title>ionicons-v5-e</title>
<path class="st0" d="M239,157v-16c-0.1-26.5-21.5-47.9-48-48h-320c-26.5,0.1-47.9,21.5-48,48v256c0.1,26.5,21.5,47.9,48,48h16"/>
<path class="st0" d="M-51,173h308c25.4,0,46,20.6,46,46v244c0,25.4-20.6,46-46,46H-51c-25.4,0-46-20.6-46-46V219
	C-97,193.6-76.4,173-51,173z"/>
<ellipse class="st1" cx="179.9" cy="264.6" rx="30.8" ry="30.6"/>
<path class="st2" d="M149.1,417.2L62,330.8c-11.6-11.4-30-11.9-42.2-1.2L-97,432.6"/>
<path class="st2" d="M72.2,509l118.6-117.7c11.3-11.1,29.2-12,41.5-1.9l70.7,58.5"/>
</svg>
