<?xml version="1.0" encoding="utf-8"?>
<!-- Generator: Adobe Illustrator 19.0.0, SVG Export Plug-In . SVG Version: 6.00 Build 0)  -->
<svg version="1.1" id="Layer_1" xmlns="http://www.w3.org/2000/svg" xmlns:xlink="http://www.w3.org/1999/xlink" x="0px" y="0px"
	 viewBox="-193 45 512 512" style="enable-background:new -193 45 512 512;" xml:space="preserve">
<style type="text/css">
	.st0{fill:none;stroke:#FFFFFF;stroke-width:32;stroke-linejoin:round;}
	.st1{fill:none;stroke:#FFFFFF;stroke-width:32;}
	.st2{fill:none;stroke:#FFFFFF;stroke-width:32;stroke-linecap:round;stroke-linejoin:round;}
</style>
<path id="Layer" class="st0" d="M-97,125h320c26.5,0,48,21.5,48,48v256c0,26.5-21.5,48-48,48H-97c-26.5,0-48-21.5-48-48V173
	C-145,146.5-123.5,125-97,125z"/>
<path id="Layer_1_" class="st1" d="M143,253c-17.7,0-32-14.3-32-32s14.3-32,32-32s32,14.3,32,32S160.7,253,143,253z"/>
<path id="Layer_2_" class="st2" d="M111,380.8l-90.7-90.5c-2.9-2.9-6.2-5.1-9.9-6.8c-3.7-1.6-7.7-2.5-11.7-2.6
	c-4-0.1-8.1,0.5-11.9,1.9c-3.8,1.4-7.3,3.5-10.3,6.1L-145,397"/>
<path id="Layer_3_" class="st2" d="M31,477l123.3-123.3c2.8-2.8,6.1-5.1,9.7-6.7c3.6-1.6,7.5-2.5,11.5-2.7c3.9-0.2,7.9,0.4,11.7,1.6
	c3.8,1.3,7.2,3.2,10.3,5.7L271,413"/>
</svg>
